<?xml version="1.0" encoding="UTF-8"?>
<!DOCTYPE svg PUBLIC "-//W3C//DTD SVG 1.0//EN" "http://www.w3.org/TR/2001/REC-SVG-20010904/DTD/svg10.dtd">
<!-- Creator: CorelDRAW X7 -->
<svg xmlns="http://www.w3.org/2000/svg" xml:space="preserve" width="56.3214mm" height="8.7969mm" version="1.0" style="shape-rendering:geometricPrecision; text-rendering:geometricPrecision; image-rendering:optimizeQuality; fill-rule:evenodd; clip-rule:evenodd"
viewBox="0 0 71363 11146"
 xmlns:xlink="http://www.w3.org/1999/xlink">
 <defs>
  <style type="text/css">
   <![CDATA[
    .fil0 {fill:#E63D24}
    .fil1 {fill:#FEFEFE;fill-rule:nonzero}
   ]]>
  </style>
 </defs>
 <g id="Слой_x0020_1">
  <metadata id="CorelCorpID_0Corel-Layer"/>
  <path class="fil0" d="M40599 0l29542 0c672,0 1222,550 1222,1222l0 8702c0,672 -550,1222 -1222,1222l-29542 0c-672,0 -1222,-550 -1222,-1222l0 -8702c0,-672 550,-1222 1222,-1222z"/>
  <path class="fil1" d="M47067 9268l-1413 0 -1351 -5701 -20 5701 -1494 0 0 -7389 2476 0 1126 4963 1218 -4963 2395 0 0 7389 -1494 0 0 -5701 -1443 5701zm7906 0l-4114 0 0 -7389 4033 0 0 1136 -2487 0 0 1821 2292 0 0 1136 -2292 0 0 2160 2568 0 0 1136zm2094 -6253l0 5117 789 0c450,0 750,-186 900,-558 150,-372 225,-1039 225,-2001 0,-880 -44,-1477 -133,-1791 -143,-512 -457,-767 -941,-767l-840 0zm-1545 6253l0 -7389 2620 0c955,0 1610,320 1965,962 293,525 440,1422 440,2691l0 491c0,567 -41,1031 -123,1392 -129,567 -351,996 -665,1290 -402,375 -962,563 -1678,563l-2559 0zm7344 0l-1545 0 0 -7389 1545 0 0 7389zm1808 0l-1525 0 2046 -7389 2037 0 2006 7389 -1627 0 -410 -1638 -2108 0 -419 1638zm2200 -2774l-747 -3193 -727 3193 1474 0z"/>
  <path class="fil1" d="M1545 9273l-1545 0 0 -7389 1545 0 0 7389zm5431 -2020c0,855 -284,1448 -848,1784 -401,239 -977,358 -1726,358 -810,0 -1395,-201 -1757,-603 -299,-335 -449,-819 -449,-1453l0 -348 1546 0c0,559 70,915 209,1069 140,153 367,230 681,230 259,0 454,-75 583,-225 130,-150 195,-356 195,-616 0,-354 -259,-694 -778,-1020 -518,-324 -1027,-646 -1525,-968 -539,-458 -808,-1002 -808,-1629 0,-643 170,-1135 510,-1476 402,-404 1042,-605 1920,-605 701,0 1235,157 1604,472 366,316 551,802 551,1460l0 299 -1505 0c0,-345 -41,-602 -123,-775 -109,-233 -307,-351 -593,-351 -532,0 -799,263 -799,790 0,368 267,713 799,1035 975,587 1477,890 1504,913 539,443 809,996 809,1659zm4519 2020l-3858 0 0 -7389 1545 0 0 6161 2313 0 0 1228zm2493 -983c416,0 693,-215 829,-646 109,-348 164,-1039 164,-2071 0,-1032 -55,-1723 -164,-2071 -136,-431 -413,-646 -829,-646 -409,0 -682,215 -819,646 -109,355 -163,1046 -163,2071 0,1025 59,1735 179,2127 119,394 387,590 803,590zm0 1105c-798,0 -1395,-184 -1791,-552 -334,-316 -556,-786 -665,-1416 -62,-361 -92,-979 -92,-1854 0,-868 30,-1486 92,-1856 109,-634 327,-1105 655,-1414 396,-368 996,-552 1801,-552 798,0 1399,184 1801,552 328,302 546,770 655,1404 68,404 103,1025 103,1866 0,868 -31,1486 -93,1854 -102,630 -320,1097 -654,1406 -403,375 -1007,562 -1812,562zm7610 -122l-1412 0 -1351 -5701 -21 5701 -1494 0 0 -7389 2477 0 1126 4963 1217 -4963 2395 0 0 7389 -1494 0 0 -5701 -1443 5701zm3660 -1351l1228 0 0 1351 -1228 0 0 -1351zm5348 -6038l1546 0 0 5240c0,627 -181,1142 -543,1545 -436,484 -1078,726 -1924,726 -812,0 -1427,-199 -1847,-598 -420,-399 -630,-957 -630,-1673l0 -5240 1546 0 0 5137c0,437 82,758 246,962 163,205 385,307 665,307 627,0 941,-423 941,-1269l0 -5137zm2115 1136l0 -1136 4451 0 0 1340 -3111 4913 3183 0 0 1136 -4667 0 0 -1351 3101 -4902 -2957 0z"/>
 </g>
</svg>
