<?xml version="1.0" encoding="utf-8"?>
<!-- Generator: Adobe Illustrator 16.0.0, SVG Export Plug-In . SVG Version: 6.00 Build 0)  -->
<!DOCTYPE svg PUBLIC "-//W3C//DTD SVG 1.0//EN" "http://www.w3.org/TR/2001/REC-SVG-20010904/DTD/svg10.dtd">
<svg version="1.0" id="Слой_1" xmlns="http://www.w3.org/2000/svg" xmlns:xlink="http://www.w3.org/1999/xlink" x="0px" y="0px"
	 width="55.59px" height="15px" viewBox="-10.99 -2.96 55.59 15" enable-background="new -10.99 -2.96 55.59 15"
	 xml:space="preserve">
<g id="Слой_x0020_1">
	<path fill="#D9DADA" d="M44.57,9.7L44.57,9.7L44.57,9.7c-1.16,1.16-2.47,1.89-4.06,2.18c-0.87,0.15-1.74,0.15-2.61,0.15
		c-1.16,0-2.32-0.43-3.34-0.87c-0.43,0.58-1.3,1.01-2.03,0.58c-2.18-0.87-4.36-0.44-6.39-0.14l0,0l0,0
		c-1.45,0.29-2.9,0.43-4.35,0.29c-1.45-0.14-2.9-0.72-4.07-1.6c-0.29-0.29-0.58-0.58-0.87-1.02c-0.29,0.43-0.58,0.73-0.87,1.02
		c-1.16,0.87-2.61,1.45-4.06,1.6c-1.45,0.15-2.9,0-4.35-0.29l0,0l0,0c-2.03-0.29-4.21-0.73-6.39,0.14c-0.73,0.43-1.6,0-2.03-0.58
		c-1.02,0.44-2.18,0.87-3.34,0.87c-0.87,0-1.74,0-2.61-0.15c-1.6-0.29-2.9-1.01-4.06-2.18l0,0v-9.87c0.29-0.29,0.58-0.58,0.87-0.87
		c1.16-0.87,2.61-1.6,4.06-1.6c1.45-0.15,2.9,0,4.35,0.29l0,0l0,0C0.44-2.06,2.62-1.77,4.8-2.64c0.73-0.29,1.6,0,2.03,0.58
		c1.02-0.44,2.03-0.73,3.34-0.87c0.58,0,1.31,0,1.89,0.15c0.58,0,1.16,0.15,1.74,0.44c1.31,0.44,2.32,1.16,3.05,2.03
		c0.73-0.87,1.74-1.6,3.05-2.03c0.58-0.29,1.16-0.44,1.74-0.44l0,0l0,0c0.58-0.15,1.3-0.15,1.88-0.15c1.31,0.15,2.32,0.44,3.34,0.87
		c0.44-0.58,1.31-0.87,2.03-0.58c2.18,0.87,4.36,0.58,6.39,0.29l0,0l0,0c1.45-0.29,2.91-0.44,4.35-0.29c1.45,0,2.9,0.73,4.07,1.6
		c0.29,0.29,0.58,0.58,0.87,0.87l0,0V9.7z M5.67,5.35c0.29,0,0.73,0,1.02,0c0-0.44,0.15-0.87,0.29-1.16
		C6.54,4.48,6.11,4.91,5.67,5.35z M-0.28,3.89c-0.15,0-0.29-0.14-0.43-0.14c0,0.29,0,0.44-0.15,0.58C-0.72,4.18-0.43,4.04-0.28,3.89
		z M27.01,5.35c0.29,0,0.72,0,1.01,0c-0.43-0.44-0.87-0.87-1.31-1.16C26.86,4.48,27.01,4.91,27.01,5.35z M34.41,3.75
		c-0.15,0-0.29,0.14-0.44,0.14c0.15,0.15,0.44,0.29,0.58,0.44C34.56,4.18,34.41,4.04,34.41,3.75z"/>
	<path fill="#FEFEFE" d="M11.77,10.14c-3.34,0.29-7.11-1.6-11.18,0c1.31-2.18,3.92-4.06,7.4-2.61c1.74,0.87,2.03,1.6,5.52,1.16
		c-8.56,0-4.21-9-0.73-4.21c-1.31,0.29-1.16,3.05,0.73,2.76c3.19-0.29,2.47-5.52-1.45-6.39C5.23-0.75,1.9,9.99-4.2,10.28
		c-4.35,0.15-7.4-2.32-6.53-7.11c0.73-2.32,2.61-3.92,5.08-4.06c3.19-0.29,6.97,1.6,11.03,0c-1.31,2.03-3.92,3.92-7.4,2.47
		c-1.74-0.73-2.03-1.45-5.37-1.02c8.42,0,4.06,9,0.58,4.21c1.31-0.29,1.16-3.05-0.73-2.9c-3.19,0.44-2.47,5.81,1.45,6.82
		c6.1,1.31,8.13-8.85,16.4-9.87c1.16-0.15,2.03,0.15,2.9,0.43c2.76,1.16,4.21,3.34,3.48,6.82C15.98,8.25,14.09,9.99,11.77,10.14z"/>
	<path fill="#FEFEFE" d="M22.07,10.14c3.19,0.29,6.97-1.6,11.03,0c-1.31-2.18-3.92-4.06-7.4-2.61c-1.74,0.87-2.03,1.6-5.37,1.16
		c8.42,0,4.07-9,0.58-4.21c1.31,0.29,1.16,3.05-0.73,2.76c-3.19-0.29-2.47-5.52,1.45-6.39c6.82-1.6,10.16,9.15,16.4,9.43
		c4.21,0.15,7.26-2.32,6.39-7.11c-0.73-2.32-2.61-3.92-5.08-4.06c-3.19-0.29-6.97,1.6-11.03,0c1.31,2.03,3.92,3.92,7.4,2.47
		c1.74-0.73,2.03-1.45,5.37-1.02c-8.42,0-4.07,9-0.58,4.21c-1.31-0.29-1.16-3.05,0.73-2.9c3.19,0.44,2.47,5.81-1.45,6.82
		c-6.1,1.31-8.13-8.85-16.4-9.87c-1.16-0.15-2.03,0.15-2.9,0.43c-2.76,1.16-4.21,3.34-3.48,6.82C17.72,8.25,19.61,9.99,22.07,10.14z
		"/>
	<path fill="#FEFEFE" d="M11.77,10.14c-3.34,0.29-7.11-1.6-11.18,0c1.31-2.18,3.92-4.06,7.4-2.61c1.74,0.87,2.03,1.6,5.52,1.16
		c-8.56,0-4.21-9-0.73-4.21c-1.31,0.29-1.16,3.05,0.73,2.76c3.19-0.29,2.47-5.52-1.45-6.39C5.23-0.75,1.9,9.99-4.2,10.28
		c-4.35,0.15-7.4-2.32-6.53-7.11c0.73-2.32,2.61-3.92,5.08-4.06c3.19-0.29,6.97,1.6,11.03,0c-1.31,2.03-3.92,3.92-7.4,2.47
		c-1.74-0.73-2.03-1.45-5.37-1.02c8.42,0,4.06,9,0.58,4.21c1.31-0.29,1.16-3.05-0.73-2.9c-3.19,0.44-2.47,5.81,1.45,6.82
		c6.1,1.31,8.13-8.85,16.4-9.87c1.16-0.15,2.03,0.15,2.9,0.43c2.76,1.16,4.21,3.34,3.48,6.82C15.98,8.25,14.09,9.99,11.77,10.14z"/>
	<path fill="#FEFEFE" d="M22.07,10.14c3.19,0.29,6.97-1.6,11.03,0c-1.31-2.18-3.92-4.06-7.4-2.61c-1.74,0.87-2.03,1.6-5.37,1.16
		c8.42,0,4.07-9,0.58-4.21c1.31,0.29,1.16,3.05-0.73,2.76c-3.19-0.29-2.47-5.52,1.45-6.39c6.82-1.6,10.16,9.15,16.4,9.43
		c4.21,0.15,7.26-2.32,6.39-7.11c-0.73-2.32-2.61-3.92-5.08-4.06c-3.19-0.29-6.97,1.6-11.03,0c1.31,2.03,3.92,3.92,7.4,2.47
		c1.74-0.73,2.03-1.45,5.37-1.02c-8.42,0-4.07,9-0.58,4.21c-1.31-0.29-1.16-3.05,0.73-2.9c3.19,0.44,2.47,5.81-1.45,6.82
		c-6.1,1.31-8.13-8.85-16.4-9.87c-1.16-0.15-2.03,0.15-2.9,0.43c-2.76,1.16-4.21,3.34-3.48,6.82C17.72,8.25,19.61,9.99,22.07,10.14z
		"/>
</g>
</svg>
