<?xml version="1.0" encoding="UTF-8"?>
<!DOCTYPE svg PUBLIC "-//W3C//DTD SVG 1.0//EN" "http://www.w3.org/TR/2001/REC-SVG-20010904/DTD/svg10.dtd">
<!-- Creator: CorelDRAW X7 -->
<svg xmlns="http://www.w3.org/2000/svg" xml:space="preserve" width="3.7266mm" height="3.7474mm" version="1.0" style="shape-rendering:geometricPrecision; text-rendering:geometricPrecision; image-rendering:optimizeQuality; fill-rule:evenodd; clip-rule:evenodd"
viewBox="0 0 95 96"
 xmlns:xlink="http://www.w3.org/1999/xlink">
 <defs>
  <style type="text/css">
   <![CDATA[
    .fil0 {fill:#FEFEFE}
   ]]>
  </style>
 </defs>
 <g id="Слой_x0020_1">
  <metadata id="CorelCorpID_0Corel-Layer"/>
  <g id="_593544256">
   <g>
    <g id="volume-off">
     <path class="fil0" d="M71 48c0,-10 -5,-18 -13,-22l0 12 13 13c0,-1 0,-2 0,-3zm14 0c0,4 -2,9 -3,13l8 8c4,-6 5,-14 5,-22 0,-23 -16,-42 -37,-46l0 11c15,5 27,19 27,36zm-78 -48l-7 7 25 25 -25 0 0 31 21 0 27 27 0 -36 22 23c-3,3 -7,5 -12,6l0 12c8,-2 14,-5 20,-10l10 11 7 -7 -47 -48 -41 -41zm41 5l-12 11 12 11 0 -22z"/>
    </g>
   </g>
   <g>
   </g>
   <g>
   </g>
   <g>
   </g>
   <g>
   </g>
   <g>
   </g>
   <g>
   </g>
   <g>
   </g>
   <g>
   </g>
   <g>
   </g>
   <g>
   </g>
   <g>
   </g>
   <g>
   </g>
   <g>
   </g>
   <g>
   </g>
   <g>
   </g>
  </g>
 </g>
</svg>
